<?xml version="1.0" encoding="UTF-8"?>
<svg id="Layer_1" xmlns="http://www.w3.org/2000/svg" xmlns:xlink="http://www.w3.org/1999/xlink" version="1.1" viewBox="0 0 1000 1000">
  <!-- Generator: Adobe Illustrator 29.3.1, SVG Export Plug-In . SVG Version: 2.1.0 Build 151)  -->
  <defs>
    <style>
      .st0 {
        fill: url(#linear-gradient);
      }

      .st1, .st2 {
        fill-rule: evenodd;
      }

      .st2 {
        fill: url(#linear-gradient1);
      }
    </style>
    <linearGradient id="linear-gradient" x1="315.28" y1="480.26" x2="227.96" y2="429.85" gradientUnits="userSpaceOnUse">
      <stop offset="0" stop-color="#00aeef"/>
      <stop offset=".84" stop-color="#7a61f8"/>
    </linearGradient>
    <linearGradient id="linear-gradient1" x1="310.21" y1="574.46" x2="235.43" y2="531.29" xlink:href="#linear-gradient"/>
  </defs>
  <path class="st1" d="M320.85,565.63c22.14-13.64,36.9-38.09,36.9-66s-14.76-52.37-36.9-66v27.7c9.44,9.99,15.23,23.47,15.23,38.3s-5.79,28.31-15.23,38.3v27.7h0ZM239.72,565.63c-22.14-13.64-36.9-38.09-36.9-66s14.76-52.37,36.9-66v27.7c-9.44,9.99-15.23,23.47-15.23,38.3s5.79,28.31,15.23,38.3v27.7h0Z"/>
  <path class="st0" d="M300.28,457.17c2.7.78,5.05,2.18,7.04,4.14,1.88,1.85,2.84,3.71,2.84,5.65v20.75c0,1.94-.96,3.53-2.84,4.84-1.99,1.39-4.34,2.1-7.04,2.1h-49.87v-103.69c2.2,1.28,4.97,2.87,8.27,4.78,3.31,1.91,7.18,4.14,11.58,6.69,3.34,1.93,7.5,4.34,12.5,7.23,5,2.89,10.84,6.26,17.51,10.11,2.7,1.56,5.08,3.58,7.04,6.08,1.91,2.44,2.84,4.59,2.84,6.46v20.85c0,1.88-.94,3.25-2.84,4.02-1.97.8-4.34.77-7.04-.01h0ZM270.27,439.35c2.26.78,5.05,1.76,8.39,2.91,3.33,1.16,7.21,2.49,11.63,4.02v-16.2c-2.22-1.03-4.99-2.32-8.33-3.86-3.33-1.54-7.23-3.34-11.69-5.4v18.52h0ZM270.27,476.27c2.26.26,5.05.58,8.39.96,3.33.38,7.21.83,11.63,1.34v-16.21c-2.22-.51-5-1.16-8.33-1.93-3.33-.77-7.23-1.67-11.69-2.71v18.54h0Z"/>
  <path class="st2" d="M290.29,558.97c-3.34-2.22-6.68-4.61-10.01-7.16-3.34,4.79-6.67,9.74-10.01,14.85v-61.31h-19.86v103.69c3.12-1.79,6.25-3.6,9.38-5.41,2.09-3.78,4.18-7.51,6.28-11.18,4.73-8.06,9.47-15.78,14.21-23.18,3.33,2.17,6.67,4.17,10.01,6,1.4.74,2.8,1.43,4.2,2.08,2.09.94,4.18,1.82,6.28,2.62,3.12-1.8,6.26-3.61,9.39-5.42v-69.2h-19.87v53.63h0Z"/>
  <g>
    <path d="M438.64,439.68c14.19,0,25.9,11.7,25.9,25.9,0,4.98-1.37,9.46-3.74,13.45,7.22,4.61,12.08,12.7,12.08,21.91,0,14.19-11.7,25.9-25.9,25.9h-48.81v-87.15h40.46ZM414.73,475.04h23.9c5.1,0,9.34-4.23,9.34-9.46s-4.23-9.34-9.34-9.34h-23.9v18.8ZM414.73,510.27h32.25c5.1,0,9.34-4.23,9.34-9.34s-4.23-9.46-9.34-9.46h-32.25v18.8Z"/>
    <path d="M496.28,462.96h-16.56v-16.31h16.56v16.31ZM496.28,466.45v60.38h-16.56v-60.38h16.56Z"/>
    <path d="M533.87,466.45l35.48-.12-1.99,15.06-7.59-1.62c6.35,10.96,5.73,26.02-1.62,36.23,18.8,12.95,13.7,43.58-9.71,43.58h-44.82l8.22-16.56h32.62c11.95,0,7.97-16.68-8.59-16.19h-3.98c-37.6,0-37.6-60.38,0-60.38h1.99ZM532.5,483c-16.43,0-16.43,27.27,0,27.27h2.86c16.43,0,16.43-27.27,0-27.27h-2.86Z"/>
    <path d="M587.03,526.83l-14.32-87.15h17.43l9.84,62.62,14.69-62.62h17.43l14.69,62.62,9.84-62.62h17.43l-14.32,87.15h-23.16l-13.2-52.42-13.2,52.42h-23.16Z"/>
    <path d="M706.55,466.45c20.67,0,29.88,18.18,27.89,34.61l-36.73,8.09c1.62.75,3.36,1.12,5.35,1.12h27.27v16.56h-27.76c-37.72,0-37.72-60.38,0-60.38h3.98ZM716.76,493.96c-.75-5.85-3.49-10.96-10.83-10.96h-2.86c-7.72,0-11.83,5.98-12.2,12.33l25.9-1.37Z"/>
    <path d="M758.83,439.68v26.77h8.09c16.68,0,30.25,13.57,30.25,30.13s-13.57,30.25-30.25,30.25h-24.65v-87.15h16.56ZM758.83,483v27.27h8.09c7.59,0,13.69-6.1,13.69-13.7s-6.1-13.57-13.69-13.57h-8.09Z"/>
  </g>
</svg>