<?xml version="1.0" encoding="UTF-8"?>
<svg id="Layer_1" xmlns="http://www.w3.org/2000/svg" xmlns:xlink="http://www.w3.org/1999/xlink" version="1.1" viewBox="0 0 1000 1000">
  <!-- Generator: Adobe Illustrator 29.3.1, SVG Export Plug-In . SVG Version: 2.1.0 Build 151)  -->
  <defs>
    <style>
      .st0 {
        fill: url(#linear-gradient);
      }

      .st1, .st2 {
        fill-rule: evenodd;
      }

      .st2 {
        fill: url(#linear-gradient1);
      }
    </style>
    <linearGradient id="linear-gradient" x1="624.11" y1="429.99" x2="314.43" y2="251.2" gradientUnits="userSpaceOnUse">
      <stop offset="0" stop-color="#00aeef"/>
      <stop offset=".84" stop-color="#7a61f8"/>
    </linearGradient>
    <linearGradient id="linear-gradient1" x1="606.12" y1="764.1" x2="340.92" y2="610.98" xlink:href="#linear-gradient"/>
  </defs>
  <path class="st1" d="M643.87,732.77c78.52-48.36,130.88-135.11,130.88-234.09s-52.36-185.73-130.88-234.09v98.25c33.48,35.44,54.01,83.24,54.01,135.85s-20.53,100.4-54.01,135.84v98.25h0ZM356.13,732.77c-78.52-48.36-130.88-135.11-130.88-234.09s52.36-185.73,130.88-234.09v98.25c-33.48,35.44-54.01,83.24-54.01,135.85s20.53,100.4,54.01,135.84v98.25h0Z"/>
  <path class="st0" d="M570.92,348.1c9.58,2.76,17.91,7.74,24.96,14.67,6.68,6.56,10.07,13.17,10.07,20.04v73.58c0,6.88-3.4,12.53-10.07,17.17-7.07,4.92-15.38,7.47-24.96,7.47h-176.87V113.3c7.8,4.52,17.62,10.17,29.35,16.95,11.75,6.79,25.46,14.7,41.09,23.72,11.83,6.83,26.61,15.39,44.35,25.63,17.73,10.24,38.43,22.19,62.09,35.85,9.57,5.53,18.01,12.69,24.96,21.55,6.78,8.65,10.07,16.29,10.07,22.91v73.95c0,6.66-3.32,11.52-10.07,14.27-6.99,2.84-15.38,2.72-24.96-.04h0ZM464.49,284.89c8.01,2.76,17.92,6.23,29.75,10.33,11.82,4.1,25.58,8.83,41.26,14.27v-57.44c-7.86-3.64-17.71-8.22-29.54-13.68-11.82-5.46-25.64-11.84-41.47-19.16v65.68h0ZM464.49,415.84c8.01.92,17.93,2.06,29.75,3.42,11.82,1.36,25.58,2.94,41.26,4.74v-57.48c-7.86-1.8-17.72-4.12-29.54-6.84-11.82-2.72-25.64-5.92-41.47-9.6v65.75h0Z"/>
  <path class="st2" d="M535.49,709.15c-11.85-7.87-23.69-16.36-35.51-25.41-11.84,16.99-23.67,34.53-35.49,52.66v-217.45h-70.44v367.74c11.08-6.36,22.16-12.76,33.27-19.2,7.42-13.42,14.83-26.62,22.27-39.64,16.78-28.57,33.59-55.97,50.39-82.23,11.82,7.69,23.67,14.78,35.51,21.29,4.96,2.61,9.92,5.07,14.9,7.39,7.42,3.35,14.83,6.47,22.27,9.3,11.08-6.4,22.19-12.8,33.29-19.23v-245.43h-70.46v190.2h0Z"/>
</svg>