<?xml version="1.0" encoding="UTF-8"?>
<svg id="Layer_1" xmlns="http://www.w3.org/2000/svg" xmlns:xlink="http://www.w3.org/1999/xlink" version="1.1" viewBox="0 0 1000 1000">
  <!-- Generator: Adobe Illustrator 29.3.1, SVG Export Plug-In . SVG Version: 2.1.0 Build 151)  -->
  <defs>
    <style>
      .st0, .st1 {
        fill: #fff;
      }

      .st0, .st2 {
        fill-rule: evenodd;
      }

      .st3 {
        fill: url(#linear-gradient);
      }

      .st2 {
        fill: url(#linear-gradient1);
      }
    </style>
    <linearGradient id="linear-gradient" x1="208.69" y1="467.21" x2="63.65" y2="383.47" gradientUnits="userSpaceOnUse">
      <stop offset="0" stop-color="#00aeef"/>
      <stop offset=".84" stop-color="#7a61f8"/>
    </linearGradient>
    <linearGradient id="linear-gradient1" x1="200.27" y1="623.69" x2="76.06" y2="551.98" xlink:href="#linear-gradient"/>
  </defs>
  <rect width="1000" height="1000"/>
  <g>
    <path class="st0" d="M217.95,609.02c36.78-22.65,61.3-63.28,61.3-109.64s-24.52-86.99-61.3-109.64v46.02c15.68,16.6,25.3,38.99,25.3,63.63s-9.62,47.02-25.3,63.62v46.02h0ZM83.18,609.02c-36.78-22.65-61.3-63.28-61.3-109.64s24.52-86.99,61.3-109.64v46.02c-15.68,16.6-25.3,38.99-25.3,63.63s9.62,47.02,25.3,63.62v46.02h0Z"/>
    <path class="st3" d="M183.78,428.86c4.49,1.29,8.39,3.63,11.69,6.87,3.13,3.07,4.71,6.17,4.71,9.39v34.46c0,3.22-1.59,5.87-4.71,8.04-3.31,2.3-7.21,3.5-11.69,3.5h-82.84v-172.24c3.65,2.12,8.25,4.76,13.75,7.94,5.5,3.18,11.92,6.88,19.24,11.11,5.54,3.2,12.46,7.21,20.77,12,8.3,4.79,18,10.39,29.08,16.79,4.48,2.59,8.44,5.94,11.69,10.09,3.18,4.05,4.71,7.63,4.71,10.73v34.64c0,3.12-1.55,5.4-4.71,6.68-3.27,1.33-7.21,1.27-11.69-.02h0ZM133.93,399.25c3.75,1.29,8.39,2.92,13.93,4.84,5.53,1.92,11.98,4.13,19.32,6.68v-26.9c-3.68-1.71-8.29-3.85-13.84-6.41-5.53-2.56-12.01-5.55-19.42-8.97v30.76h0ZM133.93,460.58c3.75.43,8.4.96,13.93,1.6,5.54.64,11.98,1.38,19.32,2.22v-26.92c-3.68-.84-8.3-1.93-13.84-3.2-5.54-1.27-12.01-2.77-19.42-4.5v30.8h0Z"/>
    <path class="st2" d="M167.19,597.96c-5.55-3.69-11.1-7.66-16.63-11.9-5.55,7.96-11.09,16.17-16.62,24.66v-101.84h-32.99v172.24c5.19-2.98,10.38-5.98,15.58-8.99,3.47-6.29,6.95-12.47,10.43-18.57,7.86-13.38,15.73-26.21,23.6-38.51,5.54,3.6,11.09,6.92,16.63,9.97,2.32,1.22,4.64,2.38,6.98,3.46,3.47,1.57,6.95,3.03,10.43,4.36,5.19-3,10.39-5.99,15.59-9.01v-114.95h-33v89.08h0Z"/>
    <g>
      <path class="st1" d="M389.07,420.18c21.21,0,38.7,17.49,38.7,38.7,0,7.44-2.05,14.14-5.58,20.09,10.79,6.88,18.05,18.98,18.05,32.74,0,21.21-17.49,38.7-38.7,38.7h-72.93v-130.23h60.46ZM353.35,473.01h35.72c7.63,0,13.95-6.33,13.95-14.14s-6.33-13.95-13.95-13.95h-35.72v28.09ZM353.35,525.67h48.19c7.63,0,13.95-6.33,13.95-13.95s-6.33-14.14-13.95-14.14h-48.19v28.09Z"/>
      <path class="st1" d="M528.43,565.85c0,18.42-5.77,33.49-27.91,33.49h-51.16l6.33-24.74h38.7c10.6,0,9.3-5.95,9.3-14.88v-19.53c-2.79,5.4-7.07,9.3-17.12,10.05-24.74,1.86-37.21-7.63-37.21-39.63v-50.79h24.74v50.79c0,25.3,29.58,20.47,29.58,0v-50.79h24.74v106.05Z"/>
      <path class="st1" d="M584.61,460.18l53.02-.19-2.98,22.51-11.35-2.42c9.49,16.37,8.56,38.88-2.42,54.14,28.09,19.35,20.47,65.12-14.51,65.12h-66.98l12.28-24.74h48.75c17.86,0,11.91-24.93-12.84-24.19h-5.95c-56.19,0-56.19-90.23,0-90.23h2.98ZM582.57,484.92c-24.56,0-24.56,40.74,0,40.74h4.28c24.56,0,24.56-40.74,0-40.74h-4.28Z"/>
      <path class="st1" d="M664.06,550.41l-21.4-130.23h26.05l14.7,93.58,21.95-93.58h26.05l21.95,93.58,14.7-93.58h26.05l-21.4,130.23h-34.6l-19.72-78.32-19.72,78.32h-34.6Z"/>
      <path class="st1" d="M842.67,460.18c30.88,0,44.65,27.16,41.67,51.72l-54.88,12.09c2.42,1.12,5.02,1.68,8,1.68h40.74v24.74h-41.49c-56.37,0-56.37-90.23,0-90.23h5.95ZM857.93,501.29c-1.12-8.74-5.21-16.37-16.19-16.37h-4.28c-11.54,0-17.68,8.93-18.23,18.42l38.7-2.05Z"/>
      <path class="st1" d="M920.81,420.18v40h12.09c24.93,0,45.21,20.28,45.21,45.02s-20.28,45.21-45.21,45.21h-36.84v-130.23h24.74ZM920.81,484.92v40.74h12.09c11.35,0,20.46-9.12,20.46-20.47s-9.12-20.28-20.46-20.28h-12.09Z"/>
    </g>
  </g>
</svg>