<?xml version="1.0" encoding="UTF-8"?>
<svg id="Layer_1" xmlns="http://www.w3.org/2000/svg" xmlns:xlink="http://www.w3.org/1999/xlink" version="1.1" viewBox="0 0 1000 1000">
  <!-- Generator: Adobe Illustrator 29.3.1, SVG Export Plug-In . SVG Version: 2.1.0 Build 151)  -->
  <defs>
    <style>
      .st0 {
        fill: url(#linear-gradient);
      }

      .st1, .st2 {
        fill-rule: evenodd;
      }

      .st2 {
        fill: url(#linear-gradient1);
      }
    </style>
    <linearGradient id="linear-gradient" x1="315.28" y1="478.11" x2="227.96" y2="427.7" gradientUnits="userSpaceOnUse">
      <stop offset="0" stop-color="#00aeef"/>
      <stop offset=".84" stop-color="#7a61f8"/>
    </linearGradient>
    <linearGradient id="linear-gradient1" x1="310.21" y1="572.31" x2="235.43" y2="529.14" xlink:href="#linear-gradient"/>
  </defs>
  <g>
    <path class="st1" d="M320.85,563.48c22.14-13.64,36.9-38.09,36.9-66s-14.76-52.37-36.9-66v27.7c9.44,9.99,15.23,23.47,15.23,38.3s-5.79,28.31-15.23,38.3v27.7h0ZM239.72,563.48c-22.14-13.64-36.9-38.09-36.9-66s14.76-52.37,36.9-66v27.7c-9.44,9.99-15.23,23.47-15.23,38.3s5.79,28.31,15.23,38.3v27.7h0Z"/>
    <path class="st0" d="M300.28,455.02c2.7.78,5.05,2.18,7.04,4.14,1.88,1.85,2.84,3.71,2.84,5.65v20.75c0,1.94-.96,3.53-2.84,4.84-1.99,1.39-4.34,2.1-7.04,2.1h-49.87v-103.69c2.2,1.28,4.97,2.87,8.27,4.78,3.31,1.91,7.18,4.14,11.58,6.69,3.34,1.93,7.5,4.34,12.5,7.23,5,2.89,10.84,6.26,17.51,10.11,2.7,1.56,5.08,3.58,7.04,6.08,1.91,2.44,2.84,4.59,2.84,6.46v20.85c0,1.88-.94,3.25-2.84,4.02-1.97.8-4.34.77-7.04-.01h0ZM270.27,437.2c2.26.78,5.05,1.76,8.39,2.91,3.33,1.16,7.21,2.49,11.63,4.02v-16.2c-2.22-1.03-4.99-2.32-8.33-3.86-3.33-1.54-7.23-3.34-11.69-5.4v18.52h0ZM270.27,474.12c2.26.26,5.05.58,8.39.96,3.33.38,7.21.83,11.63,1.34v-16.21c-2.22-.51-5-1.16-8.33-1.93-3.33-.77-7.23-1.67-11.69-2.71v18.54h0Z"/>
    <path class="st2" d="M290.29,556.82c-3.34-2.22-6.68-4.61-10.01-7.16-3.34,4.79-6.67,9.74-10.01,14.85v-61.31h-19.86v103.69c3.12-1.79,6.25-3.6,9.38-5.41,2.09-3.78,4.18-7.51,6.28-11.18,4.73-8.06,9.47-15.78,14.21-23.18,3.33,2.17,6.67,4.17,10.01,6,1.4.74,2.8,1.43,4.2,2.08,2.09.94,4.18,1.82,6.28,2.62,3.12-1.8,6.26-3.61,9.39-5.42v-69.2h-19.87v53.63h0Z"/>
  </g>
  <g>
    <path d="M413.87,449.79c12.77,0,23.3,10.53,23.3,23.3,0,4.48-1.23,8.51-3.36,12.1,6.5,4.14,10.86,11.42,10.86,19.71,0,12.77-10.53,23.3-23.3,23.3h-43.9v-78.4h36.4ZM392.36,481.6h21.5c4.59,0,8.4-3.81,8.4-8.51s-3.81-8.4-8.4-8.4h-21.5v16.91ZM392.36,513.3h29.01c4.59,0,8.4-3.81,8.4-8.4s-3.81-8.51-8.4-8.51h-29.01v16.91Z"/>
    <path d="M497.76,537.49c0,11.09-3.47,20.16-16.8,20.16h-30.8l3.81-14.9h23.3c6.38,0,5.6-3.58,5.6-8.96v-11.76c-1.68,3.25-4.26,5.6-10.3,6.05-14.9,1.12-22.4-4.59-22.4-23.86v-30.58h14.9v30.58c0,15.23,17.81,12.32,17.81,0v-30.58h14.9v63.84Z"/>
    <path d="M531.58,473.87l31.92-.11-1.79,13.55-6.83-1.46c5.71,9.86,5.15,23.41-1.46,32.59,16.91,11.65,12.32,39.2-8.74,39.2h-40.32l7.39-14.9h29.34c10.75,0,7.17-15.01-7.73-14.56h-3.58c-33.82,0-33.82-54.32,0-54.32h1.79ZM530.35,488.77c-14.78,0-14.78,24.53,0,24.53h2.58c14.78,0,14.78-24.53,0-24.53h-2.58Z"/>
    <path d="M579.41,528.19l-12.88-78.4h15.68l8.85,56.34,13.22-56.34h15.68l13.22,56.34,8.85-56.34h15.68l-12.88,78.4h-20.83l-11.87-47.15-11.87,47.15h-20.83Z"/>
    <path d="M686.94,473.87c18.59,0,26.88,16.35,25.09,31.14l-33.04,7.28c1.46.67,3.02,1.01,4.82,1.01h24.53v14.9h-24.98c-33.94,0-33.94-54.32,0-54.32h3.58ZM696.12,498.63c-.67-5.26-3.14-9.86-9.74-9.86h-2.58c-6.94,0-10.64,5.38-10.98,11.09l23.3-1.23Z"/>
    <path d="M733.98,449.79v24.08h7.28c15.01,0,27.22,12.21,27.22,27.1s-12.21,27.22-27.22,27.22h-22.18v-78.4h14.9ZM733.98,488.77v24.53h7.28c6.83,0,12.32-5.49,12.32-12.32s-5.49-12.21-12.32-12.21h-7.28Z"/>
  </g>
</svg>