<svg xmlns="http://www.w3.org/2000/svg" version="1.1" xmlns:xlink="http://www.w3.org/1999/xlink" xmlns:svgjs="http://svgjs.dev/svgjs" width="1440" height="560" preserveAspectRatio="none" viewBox="0 0 1440 560"><g mask="url(&quot;#SvgjsMask1011&quot;)" fill="none"><path d="M23.32 311.14L64.77 311.14L64.77 352.59L23.32 352.59z" fill="rgba(48, 151, 242, 1)"></path><path d="M741.27 299.89L754.44 299.89L754.44 313.06L741.27 313.06z" fill="rgba(17, 156, 239, 1)"></path><path d="M659.01 504.33a8.44 8.44 0 1 0-15.87 5.77z" stroke="rgba(17, 156, 239, 1)"></path><path d="M988.5 262.45 a46.63 46.63 0 1 0 93.26 0 a46.63 46.63 0 1 0 -93.26 0z" fill="rgba(48, 151, 242, 1)"></path><path d="M71.65 436.67L126.71 436.67L126.71 491.73L71.65 491.73z" stroke="rgba(102, 112, 246, 1)"></path><path d="M1025.74 95.86L1030.03 95.86L1030.03 99.29L1025.74 99.29z" fill="rgba(102, 112, 246, 1)"></path><path d="M356.51 399.25L383.7 399.25L383.7 414.12L356.51 414.12z" stroke="rgba(48, 151, 242, 1)"></path><path d="M389.47 549.7L414.44 549.7L414.44 557.54L389.47 557.54z" fill="rgba(17, 156, 239, 1)"></path><path d="M1298.91 289.23a14.16 14.16 0 1 0 14.45-24.35z" stroke="rgba(17, 156, 239, 1)"></path><path d="M889.38 200.15 a1.2 1.2 0 1 0 2.4 0 a1.2 1.2 0 1 0 -2.4 0z" fill="rgba(102, 112, 246, 1)"></path><path d="M1107.2 420.91a14.67 14.67 0 1 0-18.9-22.44z" stroke="rgba(17, 156, 239, 1)"></path><path d="M756.81 125.19L758.7 125.19L758.7 152.04L756.81 152.04z" fill="rgba(102, 112, 246, 1)"></path><path d="M946.3 423.2L949.81 423.2L949.81 460.82L946.3 460.82z" stroke="rgba(17, 156, 239, 1)"></path><path d="M204.09 501.89L234.75 501.89L234.75 532.55L204.09 532.55z" stroke="rgba(48, 151, 242, 1)"></path><path d="M1066.8 554.54L1110.11 554.54L1110.11 597.85L1066.8 597.85z" stroke="rgba(102, 112, 246, 1)"></path><path d="M1220.14 109.02a32.72 32.72 0 1 0 63.4-16.19z" stroke="rgba(102, 112, 246, 1)"></path><path d="M1286.4 246.87L1288.14 246.87L1288.14 248.61L1286.4 248.61z" fill="rgba(17, 156, 239, 1)"></path><path d="M233.87 328.94 a24.08 24.08 0 1 0 48.16 0 a24.08 24.08 0 1 0 -48.16 0z" fill="rgba(102, 112, 246, 1)"></path><path d="M646.14 329.48 a32.07 32.07 0 1 0 64.14 0 a32.07 32.07 0 1 0 -64.14 0z" fill="rgba(48, 151, 242, 1)"></path><path d="M1074.4 220.8L1097.21 220.8L1097.21 248.32L1074.4 248.32z" stroke="rgba(48, 151, 242, 1)"></path><path d="M1277.76 431.3a0.97 0.97 0 1 0 1.94-0.18z" stroke="rgba(48, 151, 242, 1)"></path><path d="M1125.05 258.57L1178.43 258.57L1178.43 311.95L1125.05 311.95z" stroke="rgba(17, 156, 239, 1)"></path><path d="M306.57 73.03L334.41 73.03L334.41 100.87L306.57 100.87z" stroke="rgba(48, 151, 242, 1)"></path><path d="M1411.57 32.01L1424.31 32.01L1424.31 66.96L1411.57 66.96z" stroke="rgba(17, 156, 239, 1)"></path><path d="M572.1 143.33L574.85 143.33L574.85 144.68L572.1 144.68z" stroke="rgba(48, 151, 242, 1)"></path><path d="M128.62 170.98L161.21 170.98L161.21 213.46L128.62 213.46z" stroke="rgba(17, 156, 239, 1)"></path><path d="M1413.3 56.5a27.45 27.45 0 1 0-52.57-15.82z" stroke="rgba(102, 112, 246, 1)"></path><path d="M497.3 213.86L526.94 213.86L526.94 237.97L497.3 237.97z" stroke="rgba(17, 156, 239, 1)"></path><path d="M18.66 226.34a6.79 6.79 0 1 0 4.55-12.8z" fill="rgba(17, 156, 239, 1)"></path><path d="M1253.88 196.1a28.08 28.08 0 1 0-18.89 52.88z" stroke="rgba(48, 151, 242, 1)"></path><path d="M1191.5 215.73L1243.19 215.73L1243.19 268.71L1191.5 268.71z" stroke="rgba(17, 156, 239, 1)"></path><path d="M944.06 187.41a51.19 51.19 0 1 0-69.82 74.88z" fill="rgba(102, 112, 246, 1)"></path><path d="M667.28 365.1L683.9 365.1L683.9 382.64L667.28 382.64z" stroke="rgba(102, 112, 246, 1)"></path></g><defs><mask id="SvgjsMask1011"><rect width="1440" height="560" fill="#ffffff"></rect></mask></defs></svg>