<?xml version="1.0" encoding="UTF-8"?>
<svg id="Layer_1" xmlns="http://www.w3.org/2000/svg" xmlns:xlink="http://www.w3.org/1999/xlink" version="1.1" viewBox="0 0 750.66 1000">
  <!-- Generator: Adobe Illustrator 29.3.1, SVG Export Plug-In . SVG Version: 2.1.0 Build 151)  -->
  <defs>
    <style>
      .st0 {
        fill: url(#linear-gradient);
      }

      .st1, .st2 {
        fill-rule: evenodd;
      }

      .st2 {
        fill: url(#linear-gradient1);
      }
    </style>
    <linearGradient id="linear-gradient" x1="530.6" y1="411.98" x2="143.16" y2="188.29" gradientUnits="userSpaceOnUse">
      <stop offset="0" stop-color="#00aeef"/>
      <stop offset=".84" stop-color="#7a61f8"/>
    </linearGradient>
    <linearGradient id="linear-gradient1" x1="508.1" y1="829.98" x2="176.3" y2="638.41" xlink:href="#linear-gradient"/>
  </defs>
  <path class="st1" d="M555.33,790.78c98.24-60.5,163.75-169.04,163.75-292.88s-65.5-232.38-163.75-292.88v122.92c41.89,44.34,67.57,104.15,67.57,169.96s-25.69,125.62-67.57,169.96v122.92h0ZM195.33,790.78c-98.24-60.5-163.75-169.04-163.75-292.88s65.5-232.38,163.75-292.88v122.92c-41.89,44.34-67.57,104.15-67.57,169.96s25.69,125.62,67.57,169.96v122.92h0Z"/>
  <path class="st0" d="M464.06,309.52c11.98,3.45,22.41,9.69,31.23,18.36,8.36,8.21,12.59,16.47,12.59,25.08v92.06c0,8.6-4.26,15.68-12.59,21.49-8.84,6.16-19.25,9.34-31.23,9.34h-221.29V15.75c9.76,5.66,22.04,12.73,36.72,21.21,14.7,8.49,31.85,18.39,51.41,29.68,14.8,8.54,33.29,19.25,55.49,32.07,22.18,12.81,48.08,27.76,77.68,44.86,11.97,6.92,22.54,15.88,31.23,26.96,8.49,10.82,12.59,20.38,12.59,28.66v92.52c0,8.33-4.15,14.41-12.59,17.85-8.74,3.56-19.25,3.41-31.23-.05h0ZM330.9,230.43c10.02,3.45,22.42,7.8,37.22,12.93,14.79,5.13,32,11.04,51.62,17.85v-71.87c-9.84-4.56-22.16-10.28-36.96-17.12-14.78-6.83-32.08-14.82-51.88-23.97v82.17h0ZM330.9,394.27c10.02,1.15,22.43,2.58,37.22,4.28,14.79,1.7,32,3.68,51.62,5.93v-71.91c-9.84-2.26-22.16-5.15-36.96-8.56-14.79-3.4-32.08-7.41-51.88-12.01v82.26h0Z"/>
  <path class="st2" d="M419.74,761.24c-14.82-9.85-29.64-20.47-44.43-31.79-14.82,21.26-29.61,43.2-44.41,65.89v-272.05h-88.12v460.09c13.86-7.96,27.73-15.96,41.62-24.02,9.28-16.79,18.56-33.31,27.86-49.6,21-35.75,42.02-70.03,63.04-102.88,14.79,9.62,29.61,18.5,44.43,26.64,6.2,3.27,12.41,6.35,18.64,9.25,9.28,4.19,18.56,8.1,27.86,11.64,13.86-8.01,27.76-16.01,41.65-24.06v-307.06h-88.15v237.96h0Z"/>
</svg>