<?xml version="1.0" encoding="UTF-8"?>
<svg id="Layer_1" xmlns="http://www.w3.org/2000/svg" xmlns:xlink="http://www.w3.org/1999/xlink" version="1.1" viewBox="0 0 375 375">
  <!-- Generator: Adobe Illustrator 29.3.1, SVG Export Plug-In . SVG Version: 2.1.0 Build 151)  -->
  <defs>
    <style>
      .st0 {
        fill: #fff;
      }

      .st0, .st1 {
        fill-rule: evenodd;
      }

      .st2 {
        fill: url(#linear-gradient);
      }

      .st1 {
        fill: url(#linear-gradient1);
      }
    </style>
    <linearGradient id="linear-gradient" x1="233.53" y1="161.53" x2="118.67" y2="95.21" gradientUnits="userSpaceOnUse">
      <stop offset="0" stop-color="#00aeef"/>
      <stop offset=".84" stop-color="#7a61f8"/>
    </linearGradient>
    <linearGradient id="linear-gradient1" x1="226.86" y1="285.46" x2="128.49" y2="228.67" xlink:href="#linear-gradient"/>
  </defs>
  <path class="st0" d="M240.86,273.84c29.13-17.94,48.55-50.12,48.55-86.83s-19.42-68.89-48.55-86.83v36.44c12.42,13.15,20.03,30.88,20.03,50.39s-7.62,37.24-20.03,50.39v36.44h0ZM134.14,273.84c-29.13-17.94-48.55-50.12-48.55-86.83s19.42-68.89,48.55-86.83v36.44c-12.42,13.15-20.03,30.88-20.03,50.39s7.62,37.24,20.03,50.39v36.44h0Z"/>
  <path class="st2" d="M213.81,131.16c3.55,1.02,6.64,2.87,9.26,5.44,2.48,2.43,3.73,4.88,3.73,7.43v27.29c0,2.55-1.26,4.65-3.73,6.37-2.62,1.82-5.71,2.77-9.26,2.77h-65.61V44.06c2.89,1.68,6.53,3.77,10.89,6.29,4.36,2.52,9.44,5.45,15.24,8.8,4.39,2.53,9.87,5.71,16.45,9.51,6.58,3.8,14.26,8.23,23.03,13.3,3.55,2.05,6.68,4.71,9.26,7.99,2.52,3.21,3.73,6.04,3.73,8.5v27.43c0,2.47-1.23,4.27-3.73,5.29-2.59,1.05-5.71,1.01-9.26-.01h0ZM174.33,107.71c2.97,1.02,6.65,2.31,11.04,3.83,4.38,1.52,9.49,3.27,15.3,5.29v-21.31c-2.92-1.35-6.57-3.05-10.96-5.07-4.38-2.02-9.51-4.39-15.38-7.11v24.36h0ZM174.33,156.28c2.97.34,6.65.76,11.04,1.27,4.39.5,9.49,1.09,15.3,1.76v-21.32c-2.92-.67-6.57-1.53-10.96-2.54-4.39-1.01-9.51-2.2-15.38-3.56v24.39h0Z"/>
  <path class="st1" d="M200.67,265.08c-4.39-2.92-8.79-6.07-13.17-9.43-4.39,6.3-8.78,12.81-13.17,19.53v-80.66h-26.13v136.41c4.11-2.36,8.22-4.73,12.34-7.12,2.75-4.98,5.5-9.88,8.26-14.7,6.23-10.6,12.46-20.76,18.69-30.5,4.39,2.85,8.78,5.48,13.17,7.9,1.84.97,3.68,1.88,5.53,2.74,2.75,1.24,5.5,2.4,8.26,3.45,4.11-2.37,8.23-4.75,12.35-7.13v-91.04h-26.13v70.55h0Z"/>
</svg>